                                   ===============
IMDB LINK                                : http://www.imdb.com/title/tt1764234/ 
Format                                   : Matroska
Format version                           : Version 4 / Version 2
File size                                : 2.77 GiB
Duration                                 : 1h 37mn
Overall bit rate                         : 4 084 Kbps
Encoded date                             : UTC 2013-06-17 11:34:55
Movie name                               : KILLING THEM SOFTLY 2012 BRRIP DUAL AUDIO [HIN 5.1-ENG 5.1]TARIQ QURESHI[/color][/size]
=======================================================================================
                    [size=5][color=deeppink]VIDEO:[/color][/size]
                              ===============
[size=2][color=green]
ID                                       : 1
Format                                   : AVC
Format/Info                              : Advanced Video Codec
Format profile                           : High@L4.1
Format settings, CABAC                   : Yes
Format settings, ReFrames                : 4 frames
Codec ID                                 : V_MPEG4/ISO/AVC
Duration                                 : 1h 37mn
Bit rate                                 : 3 509 Kbps
Width                                    : 1 920 pixels
Height                                   : 800 pixels
Display aspect ratio                     : 2.40:1
Frame rate mode                          : Constant
Frame rate                               : 24.000 fps
Color space                              : YUV
Chroma subsampling                       : 4:2:0
Bit depth                                : 8 bits
Scan type                                : Progressive
Bits/(Pixel*Frame)                       : 0.095
Stream size                              : 2.32 GiB (84%)
Language                                 : English
Default                                  : Yes
Forced                                   : No[/color][/size]
=====================================================================================
[size=5][color=deeppink]AUDIO:1[/color][/size]
          ================
[size=2][color=green]
ID                                       : 2
Format                                   : AC-3
Format/Info                              : Audio Coding 3
Mode extension                           : CM (complete main)
Format settings, Endianness              : Big
Codec ID                                 : A_AC3
Duration                                 : 1h 37mn
Bit rate mode                            : Constant
Bit rate                                 : 448 Kbps
Channel(s)                               : 6 channels
Channel positions                        : Front: L C R, Side: L R, LFE
Sampling rate                            : 48.0 KHz
Bit depth                                : 16 bits
Compression mode                         : Lossy
Delay relative to video                  : -75ms
Stream size                              : 311 MiB (11%)
Title                                    : 5.1 TARIQ QURESHI
Language                                 : English
Default                                  : No
Forced                                   : No
[/color][/size]
===================================================================================
[size=5][color=deeppink]AUDIO:2[/color][/size]
            ================
[size=2][color=green]

ID                                       : 3
Format                                   : AC-3
Format/Info                              : Audio Coding 3
Mode extension                           : CM (complete main)
Format settings, Endianness              : Big
Codec ID                                 : A_AC3
Duration                                 : 1h 37mn
Bit rate mode                            : Constant
Bit rate                                 : 128 Kbps
Channel(s)                               : 6 channels
Channel positions                        : Front: L C R, Side: L R, LFE
Sampling rate                            : 48.0 KHz
Bit depth                                : 16 bits
Compression mode                         : Lossy
Delay relative to video                  : -47ms
Stream size                              : 88.9 MiB (3%)
Title                                    : 5.1 TARIQ QURESHI
Language                                 : Hindi
Default                                  : Yes
Forced                                   : No
[/color][/size]
===================================================================================
[size=5][color=deeppink]SCREEN SHOT[/color][/size]
            =========================
[IMG]http://i.imgur.com/c2E75H3.jpg[/IMG]
[IMG]http://i.imgur.com/SkOAHS9.jpg[/IMG]
[IMG]http://i.imgur.com/CX0iBZQ.jpg[/IMG]
[IMG]http://i.imgur.com/txUVeFZ.jpg[/IMG]
[IMG]http://i.imgur.com/dvAAKzC.jpg[/IMG]
[IMG]http://i.imgur.com/c6RwEjD.jpg[/IMG]
[IMG]http://i.imgur.com/EqZfSFu.jpg[/IMG]
[IMG]http://i.imgur.com/xun6jhy.jpg[/IMG]
